# xmcd CD database file
#
# Track frame offsets:
#	150
#	16967
#	30533
#	49433
#	69474
#	83910
#	106941
#	123177
#	151962
#	178658
#	197699
#
# Disc length: 2913 seconds
#
# Revision: 0
# Processed by: cddbd v1.5.2PL0 Copyright (c) Steve Scherf et al.
# Submitted via: CDex 1.51
#
DISCID=890b5f0b
DTITLE=Slick Nickel - Magic
DYEAR=2008
DGENRE=Country
TTITLE0=Running Kind
TTITLE1=Real Big Itch
TTITLE2=Just A Little Bit
TTITLE3=Leaving Out The Backway
TTITLE4=Bad Dog
TTITLE5=Magic
TTITLE6=Rythm and Booze
TTITLE7=My Lover My Lady My Friend
TTITLE8=Early Morning Train
TTITLE9=Lefty's Gone
TTITLE10=Slick Nickel Boogie
EXTD=YEAR: 2008
EXTT0=
EXTT1=
EXTT2=
EXTT3=
EXTT4=
EXTT5=
EXTT6=
EXTT7=
EXTT8=
EXTT9=
EXTT10=
PLAYORDER=
